<?xml version="1.0" standalone="no"?><!-- Generator: Adobe Fireworks CS5, Export SVG Extension by Aaron Beall (http://fireworks.abeall.com) . Version: 0.6.1  --><!DOCTYPE svg PUBLIC "-//W3C//DTD SVG 1.1//EN" "http://www.w3.org/Graphics/SVG/1.1/DTD/svg11.dtd"><svg id="Untitled-Page%201" viewBox="0 0 158 45" style="background-color:#ffffff00" version="1.1"	xmlns="http://www.w3.org/2000/svg" xmlns:xlink="http://www.w3.org/1999/xlink" xml:space="preserve"	x="0px" y="0px" width="158px" height="45px">	<g id="Layer%201">		<g>			<g>				<path d="M 15.604 5.0001 C 24.731 5.0001 31.2081 11.7735 31.2081 21.6394 C 31.2081 31.505 24.731 38.2784 15.604 38.2784 C 6.4772 38.2784 0 31.505 0 21.6394 C 0 11.7735 6.4772 5.0001 15.604 5.0001 L 15.604 5.0001 ZM 15.604 7.135 C 7.8756 7.135 2.5026 12.9516 2.5026 21.6394 C 2.5026 30.3271 7.8756 36.1433 15.604 36.1433 C 23.3325 36.1433 28.7054 30.3271 28.7054 21.6394 C 28.7054 12.9516 23.3325 7.135 15.604 7.135 L 15.604 7.135 Z" fill="#221e1f"/>				<path d="M 38.1261 37.6894 L 35.6972 37.6894 L 35.6972 8.6076 C 38.9357 6.3988 42.6159 5.2208 46.5906 5.2208 C 48.3569 5.2208 49.6819 5.4419 51.2274 5.8098 L 51.2274 8.2395 C 49.6819 7.7978 48.1361 7.5768 46.5906 7.5768 C 43.1313 7.5768 39.9662 8.5339 38.1261 9.7121 L 38.1261 37.6894 Z" fill="#221e1f"/>				<path d="M 66.8988 5.0001 C 76.0256 5.0001 82.5028 11.7735 82.5028 21.6394 C 82.5028 31.505 76.0256 38.2784 66.8988 38.2784 C 57.7718 38.2784 51.2946 31.505 51.2946 21.6394 C 51.2946 11.7735 57.7718 5.0001 66.8988 5.0001 L 66.8988 5.0001 ZM 66.8988 7.135 C 59.1704 7.135 53.7972 12.9516 53.7972 21.6394 C 53.7972 30.3271 59.1704 36.1433 66.8988 36.1433 C 74.6272 36.1433 80.0002 30.3271 80.0002 21.6394 C 80.0002 12.9516 74.6272 7.135 66.8988 7.135 L 66.8988 7.135 Z" fill="#221e1f"/>				<path d="M 86.2972 6.8406 C 88.9469 5.8099 92.4801 5 96.0865 5 C 106.7591 5 113.6041 10.5219 113.6041 21.492 C 113.6041 31.9469 106.6116 38.2786 96.8226 38.2786 C 94.0256 38.2786 90.6398 37.6895 88.7261 36.6588 L 88.7261 45 L 86.2972 45 L 86.2972 6.8406 ZM 88.7261 34.4501 C 91.1551 35.5543 93.6575 36.1433 96.8226 36.1433 C 105.9494 36.1433 111.1016 29.9589 111.1016 21.492 C 111.1016 12.1417 105.4341 7.135 96.0865 7.135 C 93.2895 7.135 90.4926 7.5767 88.7261 8.2396 L 88.7261 34.4501 Z" fill="#221e1f"/>				<path d="M 133.3961 5.0001 C 142.5231 5.0001 149 11.7735 149 21.6394 C 149 31.505 142.5231 38.2784 133.3961 38.2784 C 124.2692 38.2784 117.7921 31.505 117.7921 21.6394 C 117.7921 11.7735 124.2692 5.0001 133.3961 5.0001 L 133.3961 5.0001 ZM 133.3961 7.135 C 125.6677 7.135 120.2946 12.9516 120.2946 21.6394 C 120.2946 30.3271 125.6677 36.1433 133.3961 36.1433 C 141.1247 36.1433 146.4976 30.3271 146.4976 21.6394 C 146.4976 12.9516 141.1247 7.135 133.3961 7.135 L 133.3961 7.135 Z" fill="#221e1f"/>			</g>			<path d="M 150.7769 4.4483 L 149.6702 4.4483 L 149.6702 0.981 L 148.34 0.981 L 148.34 0 L 152.1074 0 L 152.1074 0.981 L 150.7769 0.981 L 150.7769 4.4483 Z" fill="#221e1f"/>			<path d="M 154.6584 4.4483 L 153.7987 1.6549 L 153.4178 4.4483 L 152.3186 4.4483 L 152.9244 0 L 154.2549 0 L 155.1817 3.0104 L 156.0565 0 L 157.3944 0 L 158 4.4483 L 156.8934 4.4483 L 156.505 1.6549 L 155.6449 4.4483 L 154.6584 4.4483 Z" fill="#221e1f"/>		</g>	</g></svg>